<?xml version="1.0" standalone="no"?>
<svg id="wave" style="transform:rotate(0deg); transition: 0.3s" viewBox="0 0 1440 170" version="1.1" xmlns="http://www.w3.org/2000/svg"><defs><linearGradient id="sw-gradient-0" x1="0" x2="0" y1="1" y2="0"><stop stop-color="rgba(1, 38, 34, 1)" offset="0%"></stop><stop stop-color="rgba(0, 128, 128, 1)" offset="100%"></stop></linearGradient></defs><path style="transform:translate(0, 0px); opacity:1" fill="url(#sw-gradient-0)" d="M0,136L26.7,124.7C53.3,113,107,91,160,87.8C213.3,85,267,102,320,113.3C373.3,125,427,130,480,119C533.3,108,587,79,640,82.2C693.3,85,747,119,800,121.8C853.3,125,907,96,960,73.7C1013.3,51,1067,34,1120,25.5C1173.3,17,1227,17,1280,22.7C1333.3,28,1387,40,1440,36.8C1493.3,34,1547,17,1600,34C1653.3,51,1707,102,1760,121.8C1813.3,142,1867,130,1920,104.8C1973.3,79,2027,40,2080,22.7C2133.3,6,2187,11,2240,14.2C2293.3,17,2347,17,2400,39.7C2453.3,62,2507,108,2560,127.5C2613.3,147,2667,142,2720,136C2773.3,130,2827,125,2880,119C2933.3,113,2987,108,3040,96.3C3093.3,85,3147,68,3200,70.8C3253.3,74,3307,96,3360,87.8C3413.3,79,3467,40,3520,25.5C3573.3,11,3627,23,3680,36.8C3733.3,51,3787,68,3813,76.5L3840,85L3840,170L3813.3,170C3786.7,170,3733,170,3680,170C3626.7,170,3573,170,3520,170C3466.7,170,3413,170,3360,170C3306.7,170,3253,170,3200,170C3146.7,170,3093,170,3040,170C2986.7,170,2933,170,2880,170C2826.7,170,2773,170,2720,170C2666.7,170,2613,170,2560,170C2506.7,170,2453,170,2400,170C2346.7,170,2293,170,2240,170C2186.7,170,2133,170,2080,170C2026.7,170,1973,170,1920,170C1866.7,170,1813,170,1760,170C1706.7,170,1653,170,1600,170C1546.7,170,1493,170,1440,170C1386.7,170,1333,170,1280,170C1226.7,170,1173,170,1120,170C1066.7,170,1013,170,960,170C906.7,170,853,170,800,170C746.7,170,693,170,640,170C586.7,170,533,170,480,170C426.7,170,373,170,320,170C266.7,170,213,170,160,170C106.7,170,53,170,27,170L0,170Z"></path></svg>